<svg viewBox="0 0 640 400" data-background-color="#7a26c1" preserveAspectRatio="xMidYMid meet" height="400" width="640" xmlns="http://www.w3.org/2000/svg" xmlns:xlink="http://www.w3.org/1999/xlink"><rect width="640" height="400" x="0" y="0" opacity="1" fill="#7a26c1" data-fill-palette-color="background" id="background"></rect><g id="tight-bounds" transform="matrix(1,0,0,1,122.24000000000001,76.4)"><svg viewBox="0 0 395.52 247.2" height="247.2" width="395.52"><g><svg></svg></g><g><svg viewBox="0 0 395.52 247.2" height="247.2" width="395.52"><g transform="matrix(1,0,0,1,95.43047512716466,47.215199999999996)"><svg viewBox="0 0 204.65904974567067 152.7696" height="152.7696" width="204.65904974567067"><g><svg viewBox="0 0 204.65904974567067 152.7696" height="152.7696" width="204.65904974567067"><g><svg viewBox="0 0 244.43135999999998 182.4580009584742" height="152.7696" width="204.65904974567067"><g><svg viewBox="0 0 244.43135999999998 182.4580009584742" height="182.4580009584742" width="244.43135999999998"><g id="textblocktransform"><svg viewBox="0 0 244.43135999999998 182.4580009584742" height="182.4580009584742" width="244.43135999999998" id="textblock"><g><svg viewBox="0 0 244.43135999999998 125.04187451776649" height="125.04187451776649" width="244.43135999999998"><g transform="matrix(1,0,0,1,0,0)"><svg width="244.43135999999998" viewBox="-7.5 -38.349998474121094 88.63999938964844 45.349998474121094" height="125.04187451776649" data-palette-color="#daa8ff"><path d="M23.3-23.5L23.3-23.5Q21.35-23.5 21.35-25.2L21.35-25.2Q21.35-27.8 24.25-30.1 27.15-32.4 31.15-33.85L31.15-33.85Q30.8-35.3 29.35-36.08 27.9-36.85 25.78-36.85 23.65-36.85 21.38-36.05 19.1-35.25 17.07-33.77 15.05-32.3 13.78-29.88 12.5-27.45 12.5-24.55L12.5-24.55Q12.5-23.55 14-18.7 15.5-13.85 15.5-10.65L15.5-10.65Q15.5-9.85 15.3-8.35L15.3-8.35Q17.2-8.55 18.05-8.55L18.05-8.55Q22.9-8.55 22.9-6L22.9-6Q22.9-5.1 22.35-4.5 21.8-3.9 20.5-3.1L20.5-3.1Q20.1-3.35 20.1-3.55 20.1-3.75 20.3-3.9L20.3-3.9Q21.8-4.75 21.8-5.6L21.8-5.6Q21.8-7.3 17.85-7.3L17.85-7.3Q16.4-7.3 15.05-7.1L15.05-7.1Q14.2-3.9 11.88-1.13 9.55 1.65 6.7 3.38 3.85 5.1 0.98 6.05-1.9 7-4.1 7L-4.1 7Q-7.5 7-7.5 5L-7.5 5Q-7.5 2.2-4-0.65-0.5-3.5 4.33-5.43 9.15-7.35 13.8-8.15L13.8-8.15Q14-9.55 14-10.4L14-10.4Q14-12.55 12.43-17.13 10.85-21.7 10.85-25 10.85-28.3 13.45-31.58 16.05-34.85 19.63-36.6 23.2-38.35 26.4-38.35L26.4-38.35Q31.45-38.35 31.95-34.1L31.95-34.1Q34.75-35 35.75-35 36.75-35 36.83-34.93 36.9-34.85 36.9-34.35 36.9-33.85 36.45-33.7L36.45-33.7Q34.2-33.6 32-33.05L32-33.05Q31.9-29 28.95-26.25 26-23.5 23.3-23.5ZM-5.55 3.75L-5.55 3.75Q-5.55 5.2-2.65 5.2L-2.65 5.2Q1.4 5.2 6.4 2.3L6.4 2.3Q8.85 0.9 10.83-1.53 12.8-3.95 13.55-6.9L13.55-6.9Q9.3-6.2 5.03-4.65 0.75-3.1-2.4-0.83-5.55 1.45-5.55 3.75ZM22.95-25.5L22.95-25.5Q22.95-24.55 23.95-24.55L23.95-24.55Q25.85-24.55 28.53-27.13 31.2-29.7 31.25-32.8L31.25-32.8Q27.75-31.7 25.35-29.75 22.95-27.8 22.95-25.5ZM32.2-5.95L32.2-5.95Q31.9-5.95 31.9-6.3L31.9-6.3 32.05-6.65Q32.95-7.5 32.95-8.1L32.95-8.1Q32.95-8.85 32.15-8.85L32.15-8.85Q30.4-8.85 27.42-6.43 24.45-4 24.45-2.1L24.45-2.1Q24.45-1.3 25.5-1.3 26.55-1.3 27.92-2.18 29.3-3.05 30.27-3.93 31.25-4.8 31.35-4.8L31.35-4.8Q31.85-4.75 31.85-4.3L31.85-4.3Q31.85-4.1 31.07-3 30.3-1.9 30.3-1.25L30.3-1.25Q30.3-0.75 31.12-0.75 31.95-0.75 34.05-1.73 36.15-2.7 37.75-3.7L37.75-3.7 39.35-4.7Q39.4-4.6 39.4-4.3 39.4-4 38.95-3.8L38.95-3.8Q32.2 0.8 29.55 0.8L29.55 0.8Q28.25 0.8 28.25-0.5L28.25-0.5Q28.25-1.05 28.45-1.65L28.45-1.65Q28.1-1.25 26.37-0.43 24.65 0.4 23.3 0.4 21.95 0.4 21.95-0.85L21.95-0.85Q21.95-3.8 26.05-6.88 30.15-9.95 32.95-9.95L32.95-9.95Q34.6-9.95 34.6-8.55L34.6-8.55Q34.6-7.75 33.6-6.85 32.6-5.95 32.2-5.95ZM39-16.5L39-16.5Q42.4-16.5 45.7-16.55L45.7-16.55Q51.05-23.4 53-23.4L53-23.4Q53.7-23.4 53.7-22.65L53.7-22.65Q53.7-20.25 50.2-16.65L50.2-16.65 54-16.7Q57.8-16.85 58.65-16.85 59.5-16.85 59.5-16.65L59.5-16.65Q59.5-15.7 58.2-15.65L58.2-15.65 48.8-15.25Q46.35-12.95 42.75-10.4L42.75-10.4Q38.95-4.15 38.95-1.9L38.95-1.9Q38.95-0.75 40.42-0.75 41.9-0.75 45.1-2.35L45.1-2.35 49.15-4.7Q49.2-4.6 49.2-4.3 49.2-4 48.75-3.8L48.75-3.8Q47.15-2.7 45.25-1.6L45.25-1.6Q41.2 0.45 39.05 0.45L39.05 0.45Q38.05 0.45 37.5 0.05 36.95-0.35 36.9-0.75L36.9-0.75 36.8-1.15Q36.8-2.85 39.1-6.88 41.4-10.9 44.55-15.1L44.55-15.1Q42.15-15 40-15 37.85-15 37.85-15.5L37.85-15.5Q37.85-16.45 39-16.5ZM52.15-21.6L52.15-21.6Q52.15-21.85 51.95-21.85L51.95-21.85Q50.8-21.85 46.85-16.6L46.85-16.6 49.35-16.6Q52.15-19.65 52.15-21.6ZM47.95-15.2L47.95-15.2Q46.35-15.2 45.8-15.15L45.8-15.15Q45.35-14.5 44.55-13.25 43.75-12 43.45-11.55L43.45-11.55Q46.05-13.45 47.95-15.2ZM58.84-3.5L58.84-3.5Q57.29-2.55 55.24-2.55L55.24-2.55 54.64-2.55Q53.29-1 51.77-0.03 50.24 0.95 49.14 0.95L49.14 0.95Q47.59 0.95 47.59-1.05 47.59-3.05 49.74-5.7L49.74-5.7Q49.54-6.25 49.54-7.05L49.54-7.05Q49.54-8.8 51.07-10.08 52.59-11.35 54.04-11.35L54.04-11.35Q57.09-11.35 57.09-8.05L57.09-8.05Q57.09-5.85 55.19-3.25L55.19-3.25 55.79-3.25Q57.39-3.25 58.54-4L58.54-4Q58.69-4.15 58.94-4.15 59.19-4.15 59.19-3.98 59.19-3.8 58.84-3.5ZM54.04-9.25L54.04-9.25Q54.29-9.35 54.44-9.35 54.59-9.35 54.59-9.13 54.59-8.9 54.04-8.5L54.04-8.5Q52.04-6.95 51.04-5.7L51.04-5.7Q52.14-3.95 54.39-3.4L54.39-3.4Q56.34-5.7 56.34-7.7L56.34-7.7Q56.34-8.85 55.59-9.45 54.84-10.05 53.67-10.05 52.49-10.05 51.49-9.38 50.49-8.7 50.49-7.93 50.49-7.15 50.64-6.7L50.64-6.7Q52.19-8.3 54.04-9.25ZM50.34-4.6L50.34-4.6Q49.54-3.25 49.54-1.6L49.54-1.6Q49.54-0.7 50.34-0.7L50.34-0.7Q51.69-0.7 53.69-2.7L53.69-2.7Q51.44-3.1 50.34-4.6ZM58.59-3.35L58.59-3.35Q58.39-3.25 58.22-3.25 58.04-3.25 58.04-3.45 58.04-3.65 58.19-3.8L58.19-3.8Q60.24-4.95 62.69-7.55L62.69-7.55Q60.44-8.25 60.44-9.53 60.44-10.8 62.14-12.38 63.84-13.95 65.34-13.95L65.34-13.95Q66.34-13.95 66.34-12.75L66.34-12.75Q66.34-10.9 64.49-8.8L64.49-8.8Q66.89-8.4 66.89-7.65L66.89-7.65Q66.89-6.65 66.02-6.13 65.14-5.6 63.99-4.25 62.84-2.9 62.84-1.55L62.84-1.55Q62.84-1.25 63.04-1 63.24-0.75 63.89-0.75 64.54-0.75 66.64-1.73 68.74-2.7 70.34-3.7L70.34-3.7 71.94-4.7Q71.99-4.6 71.99-4.3 71.99-4 71.54-3.8L71.54-3.8Q64.79 0.8 62.14 0.8L62.14 0.8Q60.84 0.8 60.84-0.5L60.84-0.5Q60.84-1.55 61.57-2.7 62.29-3.85 63.17-4.6 64.04-5.35 64.77-6.03 65.49-6.7 65.49-6.9 65.49-7.1 64.87-7.15 64.24-7.2 63.24-7.4L63.24-7.4Q60.49-4.45 58.59-3.35ZM61.69-10.3L61.69-10.3Q61.69-9.3 63.89-8.9L63.89-8.9Q65.19-10.5 65.19-11.68 65.19-12.85 64.44-12.85 63.69-12.85 62.69-11.98 61.69-11.1 61.69-10.3ZM79.44-15.25L79.44-15.25Q80.19-15.25 80.19-14.5 80.19-13.75 79.49-12.98 78.79-12.2 77.94-12.2L77.94-12.2Q77.24-12.2 77.24-13.18 77.24-14.15 78.04-14.7 78.84-15.25 79.44-15.25ZM74.74-8.65L74.74-8.65Q74.99-9.05 75.44-9.05 75.89-9.05 76.34-8.6L76.34-8.6Q76.34-8.4 75.69-7.7 75.04-7 73.49-4.58 71.94-2.15 71.94-1.35L71.94-1.35Q71.94-0.85 72.69-0.75L72.69-0.75Q73.69-0.75 75.79-1.73 77.89-2.7 79.49-3.7L79.49-3.7 81.09-4.7Q81.14-4.6 81.14-4.3 81.14-4 80.69-3.8L80.69-3.8Q73.94 0.8 71.29 0.8L71.29 0.8Q69.99 0.8 69.99-0.5 69.99-1.8 71.41-4.13 72.84-6.45 74.74-8.65Z" opacity="1" transform="matrix(1,0,0,1,0,0)" fill="#daa8ff" class="wordmark-text-0" data-fill-palette-color="primary" id="text-0"></path></svg></g></svg></g><g transform="matrix(1,0,0,1,0,154.56126008642272)"><svg viewBox="0 0 244.43135999999998 27.896740872051467" height="27.896740872051467" width="244.43135999999998"><g transform="matrix(1,0,0,1,0,0)"><svg width="244.43135999999998" viewBox="-1.350000023841858 -36.70000076293945 419.6499938964844 47.900001525878906" height="27.896740872051467" data-palette-color="#bb84e8"><path d="M3-0.65L3-0.65Q2.65 0.45 1.43 0.45 0.2 0.45-1.35-0.9L-1.35-0.9Q0.15-5.3 5-15.08 9.85-24.85 11.3-29.7L11.3-29.7Q11.5-30.5 11.5-30.8L11.5-30.8Q11.5-31.55 10.4-33.1L10.4-33.1 10-33.65 10.1-34.3Q14.35-35.5 19.5-35.5L19.5-35.5 22.55-35.3Q23.1-34.55 23.4-33L23.4-33Q24.2-29.2 24.2-13.45L24.2-13.45Q24.2-7.35 25.25-4.85L25.25-4.85Q25.65-3.9 26.05-3.9 26.45-3.9 28.5-4.9L28.5-4.9 29.15-5.2 30.15-3.4Q28.25-1.55 25.93-0.48 23.6 0.6 21.65 0.6L21.65 0.6Q16.6 0.6 16.6-7.25L16.6-7.25 16.6-11.2Q15.3-11.5 12.65-11.5 10-11.5 6.85-11L6.85-11Q4.35-5.2 3-0.65ZM8.45-14.6L16.7-14.6 16.75-20.4Q16.75-28 16.1-30.7L16.1-30.7Q15.7-30.7 15.5-30.6L15.5-30.6Q14.1-26.75 12.88-24.08 11.65-21.4 10.23-18.38 8.8-15.35 8.45-14.6L8.45-14.6ZM34.17 0.6Q32.45 0.6 31.32-0.55 30.2-1.7 30.2-3.78 30.2-5.85 32.67-17.03 35.15-28.2 35.15-33.15L35.15-33.15 34.85-35.35Q38.75-36.7 42.15-36.7L42.15-36.7Q42.65-36 42.65-34.25L42.65-34.25Q42.65-30.25 40.12-18.78 37.6-7.3 37.6-5.43 37.6-3.55 38.05-3.55L38.05-3.55 41.55-4.8 42.45-3.05Q40.75-1.7 38.32-0.55 35.9 0.6 34.17 0.6ZM44.7-4.1L44.7-4.1 45.24-17.15Q45.24-18.85 43.45-20.65L43.45-20.65 43.55-21.25Q43.89-21.35 44.22-21.43 44.55-21.5 44.97-21.6 45.39-21.7 45.95-21.8 46.49-21.9 47.09-22L47.09-22Q48.49-22.15 49.72-22.15 50.95-22.15 51.82-21.15 52.7-20.15 52.7-17.98 52.7-15.8 52.02-11.78 51.34-7.75 51.34-5.78 51.34-3.8 52.3-3.8L52.3-3.8Q53.84-3.8 55.7-5.75L55.7-5.75Q55.74-6.55 56.34-10.85 56.95-15.15 56.95-17.1 56.95-19.05 56.64-20.45L56.64-20.45Q60.5-21.9 63.55-21.9L63.55-21.9Q64.19-21.45 64.19-18.98 64.19-16.5 63.34-12.13 62.5-7.75 62.5-5.78 62.5-3.8 63.3-3.8L63.3-3.8Q65.19-3.8 67.44-6.63 69.69-9.45 69.84-11.35L69.84-11.35 66.44-15.15Q66.64-17.3 67.5-19.05 68.34-20.8 69.09-21.5L69.09-21.5 69.8-22.15Q71.94-22.15 73.05-21 74.15-19.85 74.15-18.3L74.15-18.3Q74.15-14.35 72.19-9.95 70.25-5.55 66.94-2.48 63.64 0.6 60.25 0.6L60.25 0.6Q58.55 0.6 57.37-0.38 56.2-1.35 55.8-2.9L55.8-2.9Q52.3 0.6 48.99 0.6L48.99 0.6Q46.8 0.6 45.74-0.78 44.7-2.15 44.7-4.1ZM89.69-20.7L89.69-20.7Q89.79-20.8 90.24-22L90.24-22Q92.59-22 96.54-20.6L96.54-20.6Q95.29-16.45 94.54-11.93 93.79-7.4 93.79-5.48 93.79-3.55 94.19-3.55L94.19-3.55Q94.49-3.55 96.39-4.5L96.39-4.5 96.99-4.8 97.89-3.05Q97.44-2.65 96.72-2.05 95.99-1.45 93.99-0.43 91.99 0.6 90.39 0.6L90.39 0.6Q87.29 0.6 86.79-2.2L86.79-2.2Q83.59 0.6 81.02 0.6 78.44 0.6 76.67-1.4 74.89-3.4 74.89-7.7L74.89-7.7Q74.89-14.4 77.64-18.28 80.39-22.15 84.29-22.15L84.29-22.15Q87.09-22.15 89.69-20.7ZM83.99-3.65L83.99-3.65Q85.19-3.65 86.69-4.6L86.69-4.6Q87.04-11.65 89.04-18.55L89.04-18.55Q87.54-19.2 86.49-19.2L86.49-19.2Q84.69-19.2 83.42-15.68 82.14-12.15 82.14-7.9 82.14-3.65 83.99-3.65ZM105.62 5.4Q103.94 6.4 103.94 7.35 103.94 8.3 105.02 8.3 106.09 8.3 107.44 7.28 108.79 6.25 109.69 3.95L109.69 3.95Q107.29 4.4 105.62 5.4ZM103.19 0.2L103.19 0.2Q98.99 0.2 98.99-4.4L98.99-4.4Q98.99-5.5 99.99-10.75 100.99-16 100.99-19.5L100.99-19.5Q100.99-20.25 100.79-20.9L100.79-20.9Q103.49-21.95 108.19-21.95L108.19-21.95Q108.44-21.25 108.44-19.55 108.44-17.85 107.34-12.5 106.24-7.15 106.24-5.6 106.24-4.05 107.54-4.05L107.54-4.05Q109.09-4.05 111.29-5.6L111.29-5.6Q111.54-8.55 113.29-21.15L113.29-21.15Q115.04-21.85 119.59-21.85L119.59-21.85 120.54-21.85Q119.59-18.1 118.69-11.05 117.79-4 117.24-1.25L117.24-1.25Q116.19 4.25 113.37 7.73 110.54 11.2 105.99 11.2L105.99 11.2Q104.19 11.2 102.72 10.25 101.24 9.3 101.24 7.8L101.24 7.8Q101.24 5.8 103.69 4.15 106.14 2.5 110.29 1.6L110.29 1.6Q110.74-0.6 110.99-2.65L110.99-2.65Q106.94 0.2 103.19 0.2ZM137.09-6.55L137.09-6.55Q137.09-3.4 134.31-1.4 131.54 0.6 127.99 0.6 124.44 0.6 122.36-0.9 120.29-2.4 120.29-3.55L120.29-3.55Q120.29-4.25 122.04-5.83 123.79-7.4 124.99-7.75L124.99-7.75Q127.49-5.9 129.09-1.9L129.09-1.9Q130.94-2.05 130.94-3.65L130.94-3.65Q130.94-5.95 126.89-10.18 122.84-14.4 122.84-16.9 122.84-19.4 125.09-20.78 127.34-22.15 130.51-22.15 133.69-22.15 135.29-21.03 136.89-19.9 136.89-17.98 136.89-16.05 133.84-12.65L133.84-12.65Q134.19-12.3 134.74-11.73 135.29-11.15 136.19-9.55 137.09-7.95 137.09-6.55ZM132.29-14.4Q134.39-16.2 134.39-17.95 134.39-19.7 131.99-19.7L131.99-19.7Q130.84-19.7 130.09-19.23 129.34-18.75 129.34-18.15L129.34-18.15Q129.34-17.05 131.54-15.05L131.54-15.05 132.29-14.4ZM172.88 0.6Q170.93 0.6 169.68-0.68 168.43-1.95 168.43-4.13 168.43-6.3 170.63-16.45L170.63-16.45Q169.33-16.75 166.43-16.75 163.53-16.75 160.88-16.25L160.88-16.25Q158.33-4.75 158.18-0.85L158.18-0.85Q156.38 0.15 150.58 0.15L150.58 0.15 150.08 0.15Q150.23-2.05 152.76-13 155.28-23.95 155.88-29.45L155.88-29.45Q155.88-30.25 155.38-31.38 154.88-32.5 154.38-33.2L154.38-33.2 153.83-33.9 153.98-34.65Q156.93-35.5 163.33-35.5L163.33-35.5Q163.93-34.5 163.93-32.25 163.93-30 161.68-19.85L161.68-19.85 171.33-19.85Q173.08-28.75 173.13-32.55L173.13-32.55Q173.13-33.4 173.03-33.95L173.03-33.95Q177.03-35.5 181.08-35.5L181.08-35.5Q181.23-35.2 181.23-34L181.23-34Q181.23-31.25 178.81-19.85 176.38-8.45 176.38-5.35L176.38-5.35Q176.38-4 176.83-4 177.28-4 179.88-5.3L179.88-5.3 180.78-3.45Q176.33 0.6 172.88 0.6L172.88 0.6ZM183.23-8.65L183.23-8.65Q183.23-14.9 187.01-18.53 190.78-22.15 195.58-22.15L195.58-22.15Q198.53-22.15 200.43-20.7 202.33-19.25 202.33-16.82 202.33-14.4 201.11-12.75 199.88-11.1 198.13-10.2L198.13-10.2Q194.58-8.45 191.63-8L191.63-8 190.43-7.85Q190.78-3.15 194.28-3.15L194.28-3.15Q195.48-3.15 196.83-3.75 198.18-4.35 198.93-4.95L198.93-4.95 199.68-5.55 200.88-3.95Q200.48-3.4 199.28-2.5 198.08-1.6 197.03-1L197.03-1Q194.13 0.6 190.68 0.6 187.23 0.6 185.23-1.85 183.23-4.3 183.23-8.65ZM190.38-10.3Q192.93-10.75 194.43-12.45 195.93-14.15 195.93-16.85 195.93-19.55 194.33-19.55L194.33-19.55Q192.43-19.55 191.41-16.32 190.38-13.1 190.38-10.3L190.38-10.3ZM204.38 0.15L204.38 0.15 204.03 0.15Q203.93-0.25 203.93-1.68 203.93-3.1 205.28-9.35 206.63-15.6 206.63-16.5L206.63-16.5Q206.63-18.05 205.23-19.9L205.23-19.9 204.78-20.5 204.83-21.15Q207.53-21.9 213.48-21.9L213.48-21.9Q214.08-20.6 214.08-18.25L214.08-18.25Q214.63-19.15 216.38-20.65 218.13-22.15 219.98-22.15L219.98-22.15Q222.68-22.15 222.68-17.45L222.68-17.45Q222.43-17.15 222-16.68 221.58-16.2 220.3-15.35 219.03-14.5 217.83-14.3L217.83-14.3Q217.78-14.3 216.98-15.65 216.18-17 215.78-17L215.78-17Q214.53-16.55 213.58-15.5L213.58-15.5Q211.28-5.15 211.28-2.1L211.28-2.1Q211.28-1 211.33-0.55L211.33-0.55Q209.58 0.15 204.38 0.15ZM221.38-8.65L221.38-8.65Q221.38-14.9 225.15-18.53 228.93-22.15 233.73-22.15L233.73-22.15Q236.68-22.15 238.58-20.7 240.48-19.25 240.48-16.82 240.48-14.4 239.25-12.75 238.03-11.1 236.28-10.2L236.28-10.2Q232.73-8.45 229.78-8L229.78-8 228.58-7.85Q228.93-3.15 232.43-3.15L232.43-3.15Q233.63-3.15 234.98-3.75 236.33-4.35 237.08-4.95L237.08-4.95 237.83-5.55 239.03-3.95Q238.63-3.4 237.43-2.5 236.23-1.6 235.18-1L235.18-1Q232.28 0.6 228.83 0.6 225.38 0.6 223.38-1.85 221.38-4.3 221.38-8.65ZM228.53-10.3Q231.08-10.75 232.58-12.45 234.08-14.15 234.08-16.85 234.08-19.55 232.48-19.55L232.48-19.55Q230.58-19.55 229.55-16.32 228.53-13.1 228.53-10.3L228.53-10.3ZM256.82-35.5L256.82-35.5 273.52-34.95 278.22-35.05Q278.37-34 278.37-32.85 278.37-31.7 277.97-31.2 277.57-30.7 276.52-30.7L276.52-30.7Q276.42-30.7 269.47-31.35L269.47-31.35Q269.27-29.1 267.97-23.65 266.67-18.2 265.47-12 264.27-5.8 264.22-0.85L264.22-0.85Q262.27 0.15 256.22 0.15L256.22 0.15 255.87 0.15Q255.87-2.45 258.72-15.35 261.57-28.25 261.57-31.05L261.57-31.05Q261.57-31.25 261.47-31.75L261.47-31.75 259.47-31.75Q255.37-31.75 253.17-30.5L253.17-30.5Q252.02-32 251.77-34.9L251.77-34.9Q253.47-35.5 256.82-35.5ZM279.97 0.6L279.97 0.6Q276.52 0.6 274.57-1.83 272.62-4.25 272.62-8.6L272.62-8.6Q272.62-14.15 275.59-18.15 278.57-22.15 283.82-22.15L283.82-22.15 285.62-22.05Q286.47-22.5 287.52-22.5L287.52-22.5Q291.47-22.5 291.47-15.05L291.47-15.05Q293.52-15.15 295.62-15.6L295.62-15.6 296.42-15.8 296.72-13.85Q295.07-13.15 292.27-12.6L292.27-12.6 291.27-12.4Q290.32-7.15 287.42-3.28 284.52 0.6 279.97 0.6ZM282.67-3.7L282.67-3.7Q284.77-3.7 286.44-6.4 288.12-9.1 288.77-12.1L288.77-12.1Q283.42-12.1 283.42-16.1L283.42-16.1Q283.42-17.7 284.07-19.1L284.07-19.1 284.32-19.6Q284.12-19.7 283.82-19.7 283.52-19.7 283.37-19.6L283.37-19.6Q282.12-18.8 281.02-15.85 279.92-12.9 279.92-9.1L279.92-9.1Q279.92-3.7 282.67-3.7ZM325.91-2.4Q325.31-0.85 324.04 0.05 322.76 0.95 321.04 0.95 319.31 0.95 315.89-1.15 312.46-3.25 310.41-3.85L310.41-3.85Q309.06-2.05 307.36-0.85 305.66 0.35 305.01 0.35L305.01 0.35Q304.51 0.35 303.01-1.83 301.51-4 301.51-4.95L301.51-4.95Q301.51-5.5 303.09-6.6 304.66-7.7 306.41-8.1L306.41-8.1Q307.66-11.15 309.01-17.13 310.36-23.1 311.11-29.45L311.11-29.45Q311.11-30.25 310.59-31.38 310.06-32.5 309.51-33.2L309.51-33.2 309.01-33.9 309.16-34.65Q312.16-35.5 319.01-35.5L319.01-35.5Q319.66-34.4 319.66-32.15 319.66-29.9 318.36-25.45 317.06-21 314.79-14.78 312.51-8.55 312.16-7.4L312.16-7.4Q312.36-7.35 313.41-7.05 314.46-6.75 314.79-6.68 315.11-6.6 316.06-6.38 317.01-6.15 317.56-6.08 318.11-6 319.01-5.9L319.01-5.9Q320.56-5.65 321.94-5.65 323.31-5.65 323.91-6.35L323.91-6.35 325.31-8.95 326.96-8.55Q326.96-5.3 325.91-2.4L325.91-2.4ZM338.81-19.05Q338.81-16.95 337.46-11.83 336.11-6.7 336.11-5.13 336.11-3.55 336.56-3.55L336.56-3.55Q336.86-3.55 338.86-4.5L338.86-4.5 339.46-4.8 340.31-3.05Q339.86-2.65 339.11-2.05 338.36-1.45 336.31-0.43 334.26 0.6 332.51 0.6 330.76 0.6 329.76-0.48 328.76-1.55 328.76-3.38 328.76-5.2 330.01-9.88 331.26-14.55 331.26-15.95L331.26-15.95Q331.26-18.05 329.96-19.9L329.96-19.9 329.51-20.5 329.56-21.15Q332.21-21.9 338.16-21.9L338.16-21.9Q338.81-21.15 338.81-19.05ZM333.11-27.38Q332.11-28.35 332.11-30 332.11-31.65 333.49-32.9 334.86-34.15 336.66-34.15 338.46-34.15 339.46-33.15 340.46-32.15 340.46-30.53 340.46-28.9 339.04-27.65 337.61-26.4 335.86-26.4 334.11-26.4 333.11-27.38ZM357.51-6.55L357.51-6.55Q357.51-3.4 354.73-1.4 351.96 0.6 348.41 0.6 344.86 0.6 342.78-0.9 340.71-2.4 340.71-3.55L340.71-3.55Q340.71-4.25 342.46-5.83 344.21-7.4 345.41-7.75L345.41-7.75Q347.91-5.9 349.51-1.9L349.51-1.9Q351.36-2.05 351.36-3.65L351.36-3.65Q351.36-5.95 347.31-10.18 343.26-14.4 343.26-16.9 343.26-19.4 345.51-20.78 347.76-22.15 350.93-22.15 354.11-22.15 355.71-21.03 357.31-19.9 357.31-17.98 357.31-16.05 354.26-12.65L354.26-12.65Q354.61-12.3 355.16-11.73 355.71-11.15 356.61-9.55 357.51-7.95 357.51-6.55ZM352.71-14.4Q354.81-16.2 354.81-17.95 354.81-19.7 352.41-19.7L352.41-19.7Q351.26-19.7 350.51-19.23 349.76-18.75 349.76-18.15L349.76-18.15Q349.76-17.05 351.96-15.05L351.96-15.05 352.71-14.4ZM370.61-21.55L375.46-21.55Q375.36-20.3 374.61-18.65L374.61-18.65Q372.71-18.85 371.01-18.85L371.01-18.85 370.11-18.85Q367.81-7.7 367.81-4.95L367.81-4.95Q367.81-3.5 368.43-3.5 369.06-3.5 371.76-4.75L371.76-4.75 372.66-3.1Q368.21 0.6 364.41 0.6L364.41 0.6Q362.66 0.6 361.53-0.5 360.41-1.6 360.41-3.43 360.41-5.25 360.83-7.55 361.26-9.85 362.01-13.18 362.76-16.5 363.11-18.55L363.11-18.55Q361.26-18.4 360.36-18.25L360.36-18.25Q360.26-18.85 360.26-19.88 360.26-20.9 360.41-21.55L360.41-21.55 363.56-21.55Q363.96-24.25 363.96-26.65L363.96-26.65 363.91-28.2 363.91-28.35Q367.81-29.7 371.26-29.7L371.26-29.7Q371.46-28.7 371.46-27.2 371.46-25.7 370.61-21.55L370.61-21.55ZM374.35-8.65L374.35-8.65Q374.35-14.9 378.13-18.53 381.9-22.15 386.7-22.15L386.7-22.15Q389.65-22.15 391.55-20.7 393.45-19.25 393.45-16.82 393.45-14.4 392.23-12.75 391-11.1 389.25-10.2L389.25-10.2Q385.7-8.45 382.75-8L382.75-8 381.55-7.85Q381.9-3.15 385.4-3.15L385.4-3.15Q386.6-3.15 387.95-3.75 389.3-4.35 390.05-4.95L390.05-4.95 390.8-5.55 392-3.95Q391.6-3.4 390.4-2.5 389.2-1.6 388.15-1L388.15-1Q385.25 0.6 381.8 0.6 378.35 0.6 376.35-1.85 374.35-4.3 374.35-8.65ZM381.5-10.3Q384.05-10.75 385.55-12.45 387.05-14.15 387.05-16.85 387.05-19.55 385.45-19.55L385.45-19.55Q383.55-19.55 382.53-16.32 381.5-13.1 381.5-10.3L381.5-10.3ZM395.85 0.15L395.85 0.15 394.9 0.15Q394.9-2.2 396.33-8.85 397.75-15.5 397.75-16.4L397.75-16.4Q397.75-18.05 396.35-19.9L396.35-19.9 395.9-20.5 395.95-21.15Q398.65-21.9 404.6-21.9L404.6-21.9Q405.25-21.05 405.3-18.8L405.3-18.8Q409.65-22.15 412.65-22.15L412.65-22.15Q414.45-22.15 415.53-20.9 416.6-19.65 416.6-17.78 416.6-15.9 415.45-11.3 414.3-6.7 414.3-5.13 414.3-3.55 414.7-3.55L414.7-3.55Q415-3.55 416.8-4.5L416.8-4.5 417.4-4.8 418.3-3.05Q417.85-2.65 417.1-2.05 416.35-1.45 414.33-0.43 412.3 0.6 410.7 0.6L410.7 0.6Q407.05 0.6 407.05-3.55L407.05-3.55Q407.05-5.3 408.18-10 409.3-14.7 409.3-16.05 409.3-17.4 408.45-17.4L408.45-17.4Q407-17.4 404.9-16.15L404.9-16.15Q404.75-15.3 403.9-11.65L403.9-11.65Q402.15-3.8 402.15-0.55L402.15-0.55Q400.4 0.15 395.85 0.15Z" opacity="1" transform="matrix(1,0,0,1,0,0)" fill="#bb84e8" class="slogan-text-1" data-fill-palette-color="secondary" id="text-1"></path></svg></g></svg></g></svg></g></svg></g></svg></g></svg></g></svg></g><g><path d="M0 123.6c0-68.262 55.338-123.6 123.6-123.6 33.442 0 63.782 13.281 86.033 34.857h-6.93c-21.014-18.744-48.728-30.136-79.103-30.136-65.655 0-118.879 53.224-118.879 118.879 0 65.655 53.224 118.879 118.879 118.879 30.375 0 58.089-11.392 79.103-30.136h6.93c-22.251 21.576-52.591 34.857-86.033 34.857-68.262 0-123.6-55.338-123.6-123.6z" fill="#a437db" stroke="transparent" data-fill-palette-color="tertiary"></path></g></svg></g><defs></defs></svg><rect width="395.52" height="247.2" fill="none" stroke="none" visibility="hidden"></rect></g></svg>